<svg width="206" height="211" viewBox="0 0 206 211" fill="none" xmlns="http://www.w3.org/2000/svg">
<path d="M95.7859 3.95723C100.279 1.49232 105.721 1.49232 110.214 3.95723L182.025 43.3487C192.406 49.0433 192.406 63.9568 182.025 69.6513L110.214 109.043C105.721 111.508 100.279 111.508 95.7859 109.043L23.975 69.6513C13.5937 63.9567 13.5937 49.0432 23.975 43.3487L95.7859 3.95723Z" fill="black"/>
<path d="M29.5 43C36.9558 43 43 49.0442 43 56.5L43 150.5C43 157.956 36.9558 164 29.5 164V164C22.0442 164 16 157.956 16 150.5L16 56.5C16 49.0442 22.0442 43 29.5 43V43Z" fill="black"/>
<path d="M18.5449 98.8074C22.1596 92.2863 30.3762 89.9303 36.8972 93.5449L108.753 133.375C115.274 136.99 117.63 145.207 114.016 151.728V151.728C110.401 158.249 102.185 160.605 95.6635 156.99L23.8074 117.16C17.2864 113.545 14.9303 105.328 18.5449 98.8074V98.8074Z" fill="black"/>
<path d="M91.5449 151.485C87.9303 144.964 90.2864 136.748 96.8074 133.133L170.03 92.5449C176.551 88.9303 184.768 91.2863 188.383 97.8074V97.8074C191.997 104.328 189.641 112.545 183.12 116.16L109.897 156.748C103.376 160.362 95.1596 158.006 91.5449 151.485V151.485Z" fill="black"/>
<path d="M18.5449 145.807C22.1596 139.286 30.3762 136.93 36.8972 140.545L108.753 180.375C115.274 183.99 117.63 192.207 114.016 198.728V198.728C110.401 205.249 102.185 207.605 95.6635 203.99L23.8074 164.16C17.2864 160.545 14.9303 152.328 18.5449 145.807V145.807Z" fill="black"/>
<path d="M91.5449 198.485C87.9303 191.964 90.2863 183.748 96.8074 180.133L170.03 139.545C176.551 135.93 184.768 138.286 188.383 144.807V144.807C191.997 151.328 189.641 159.545 183.12 163.16L109.897 203.748C103.376 207.362 95.1596 205.006 91.5449 198.485V198.485Z" fill="black"/>
</svg>
